<svg width="36" height="40" viewBox="0 0 36 40" fill="none" xmlns="http://www.w3.org/2000/svg">
<path fill-rule="evenodd" clip-rule="evenodd" d="M35.1192 9.98306C35.4097 10.4931 35.5535 11.0874 35.5538 11.76C35.5556 17.2543 35.5556 28.2396 35.5556 28.2396C35.5553 28.8975 35.4174 29.4803 35.14 29.9828C34.8545 30.499 34.421 30.9313 33.8343 31.2711C31.8503 32.416 29.8656 33.5595 27.8808 34.7029C25.1297 36.2878 22.3787 37.8727 19.6299 39.4614C18.3538 40.1988 17.1168 40.1721 15.85 39.4239C14.7111 38.7512 10.8119 36.5078 7.28535 34.4789C4.97938 33.1521 2.83275 31.9171 1.72139 31.2728C1.13472 30.9328 0.70125 30.5008 0.415695 29.9842C0.137917 29.4817 0.000277778 28.8989 0 28.2411C0.000902778 25.494 0.000902778 22.7469 0.000902778 19.9999C0.000902778 17.2529 0.000902778 14.5058 0.00180556 11.7588C0.00208333 10.4245 0.565417 9.39792 1.72292 8.72709C2.83784 8.08071 4.99462 6.83963 7.30891 5.50792C10.8292 3.48226 14.7138 1.24689 15.8506 0.575834C17.1168 -0.171944 18.3538 -0.198749 19.6295 0.538334C22.3399 2.1048 25.0523 3.66762 27.7648 5.23045C29.7877 6.396 31.8107 7.56155 33.8328 8.72862C34.4061 9.06112 34.8338 9.48139 35.1192 9.98306ZM26.9854 17.5346L21.4522 17.4956C21.4522 17.4956 21.1231 14.4953 17.9331 14.4953C14.7433 14.4953 13.9804 17.9393 13.9804 20.0848C13.9804 21.4961 14.5456 25.6459 17.9331 25.6459C21.603 25.6459 21.4618 22.441 21.4618 22.441L26.7405 22.7428C26.7405 25.5136 25.047 30.4167 17.9613 30.4167C13.5858 30.4167 7.96814 27.876 7.96814 20.0848C7.96814 12.2934 13.6987 9.58336 17.9613 9.58336C24.6518 9.58336 26.9854 15.2292 26.9854 17.5346Z" fill="white"/>
<path fill-rule="evenodd" clip-rule="evenodd" d="M15.8247 0.611589C17.0889 -0.134244 18.3238 -0.16105 19.5974 0.574228C22.4312 2.21046 25.2671 3.84305 28.103 5.47563C28.9032 5.9363 29.7033 6.39696 30.5035 6.8577L24.8367 12.5245C23.4101 10.9018 21.1944 9.58336 17.9613 9.58336C13.6987 9.58336 7.96814 12.2934 7.96814 20.0848C7.96814 23.2181 8.87672 25.5023 10.2477 27.1135L4.51848 32.8427C3.58449 32.306 2.6512 31.768 1.71861 31.2288C1.13292 30.8898 0.700139 30.459 0.415 29.9435C0.137639 29.4424 0.000277778 28.8612 0 28.2051C0.000902778 25.4651 0.000902778 22.7251 0.000902778 19.9852C0.000902778 17.2453 0.000902778 14.5054 0.00180556 11.7655C0.00208333 10.4346 0.564445 9.41076 1.72014 8.74173C2.83515 8.0959 4.99388 6.85489 7.30888 5.52404C10.8202 3.50543 14.6911 1.28013 15.8247 0.611589ZM14.4763 22.8849L21.0631 16.2981C20.6329 15.4621 19.744 14.4953 17.9331 14.4953C14.7433 14.4953 13.9804 17.9393 13.9804 20.0848C13.9804 20.6932 14.0854 21.8105 14.4763 22.8849Z" fill="#EAEAEA"/>
</svg>
