<svg width="65" height="42" viewBox="0 0 65 42" fill="none" xmlns="http://www.w3.org/2000/svg">
<path d="M23.8571 12.4286L18.1429 3.85714M12.4286 41C15.4596 41 18.3665 39.7959 20.5098 37.6526C22.6531 35.5094 23.8571 32.6025 23.8571 29.5714C23.8571 26.5404 22.6531 23.6335 20.5098 21.4902C18.3665 19.3469 15.4596 18.1429 12.4286 18.1429C9.39753 18.1429 6.49062 19.3469 4.34735 21.4902C2.20408 23.6335 1 26.5404 1 29.5714C1 32.6025 2.20408 35.5094 4.34735 37.6526C6.49062 39.7959 9.39753 41 12.4286 41V41ZM52.4286 41C55.4596 41 58.3665 39.7959 60.5098 37.6526C62.6531 35.5094 63.8571 32.6025 63.8571 29.5714C63.8571 26.5404 62.6531 23.6335 60.5098 21.4902C58.3665 19.3469 55.4596 18.1429 52.4286 18.1429C49.3975 18.1429 46.4906 19.3469 44.3474 21.4902C42.2041 23.6335 41 26.5404 41 29.5714C41 32.6025 42.2041 35.5094 44.3474 37.6526C46.4906 39.7959 49.3975 41 52.4286 41ZM12.4286 3.85714H26.7143H12.4286ZM52.4286 29.5714L43.8571 1H35.2857L52.4286 29.5714ZM23.8571 12.4286L12.4286 29.5714H32.4286C32.4286 21 38.1429 12.4286 46.7143 12.4286H23.8571Z" stroke="white" stroke-width="2"/>
</svg>
