<svg width="20" height="23" viewBox="0 0 20 23" fill="none" xmlns="http://www.w3.org/2000/svg">
<path d="M13.2686 10.925C13.2686 11.6265 12.7543 12.2015 12.1029 12.2015C11.4629 12.2015 10.9371 11.6265 10.9371 10.925C10.9371 10.2235 11.4514 9.6485 12.1029 9.6485C12.7543 9.6485 13.2686 10.2235 13.2686 10.925ZM7.93143 9.6485C7.28 9.6485 6.76571 10.2235 6.76571 10.925C6.76571 11.6265 7.29143 12.2015 7.93143 12.2015C8.58286 12.2015 9.09714 11.6265 9.09714 10.925C9.10857 10.2235 8.58286 9.6485 7.93143 9.6485ZM20 2.369V23C17.1208 20.4397 18.0416 21.2872 14.6971 18.1585L15.3029 20.286H2.34286C1.05143 20.286 0 19.228 0 17.917V2.369C0 1.058 1.05143 0 2.34286 0H17.6571C18.9486 0 20 1.058 20 2.369ZM16.7429 13.271C16.7429 9.568 15.0971 6.5665 15.0971 6.5665C13.4514 5.3245 11.8857 5.359 11.8857 5.359L11.7257 5.543C13.6686 6.141 14.5714 7.0035 14.5714 7.0035C11.8567 5.5063 8.66768 5.50603 6.03429 6.67C5.61143 6.8655 5.36 7.0035 5.36 7.0035C5.36 7.0035 6.30857 6.095 8.36571 5.497L8.25143 5.359C8.25143 5.359 6.68571 5.3245 5.04 6.5665C5.04 6.5665 3.39429 9.568 3.39429 13.271C3.39429 13.271 4.35429 14.9385 6.88 15.019C6.88 15.019 7.30286 14.5015 7.64571 14.0645C6.19429 13.6275 5.64571 12.7075 5.64571 12.7075C5.81384 12.8259 6.09107 12.9794 6.11429 12.995C8.0433 14.082 10.7834 14.4382 13.2457 13.3975C13.6457 13.248 14.0914 13.0295 14.56 12.719C14.56 12.719 13.9886 13.662 12.4914 14.0875C12.8343 14.5245 13.2457 15.019 13.2457 15.019C15.7714 14.9385 16.7429 13.271 16.7429 13.271Z" fill="white"/>
</svg>
