<svg width="28" height="40" viewBox="0 0 28 40" fill="none" xmlns="http://www.w3.org/2000/svg">
<path fill-rule="evenodd" clip-rule="evenodd" d="M12.2971 3.11291H7.70555C6.4878 3.11291 5.31993 3.59666 4.45885 4.45774C3.59777 5.31882 3.11402 6.48669 3.11402 7.70444C3.11402 8.92219 3.59777 10.0901 4.45885 10.9511C5.31993 11.8122 6.4878 12.296 7.70555 12.296H12.2971V3.11291ZM12.2971 8.0036e-08H20.0015C21.6164 -0.000232627 23.1906 0.506993 24.5016 1.45001C25.8126 2.39302 26.7941 3.72414 27.3074 5.25528C27.8208 6.78643 27.8401 8.44017 27.3625 9.98285C26.8849 11.5255 25.9347 12.8791 24.646 13.8524C26.2819 15.0772 27.3643 16.9017 27.655 18.9245C27.9457 20.9473 27.421 23.0027 26.1962 24.6386C24.9714 26.2746 23.147 27.3569 21.1242 27.6477C19.1014 27.9384 17.0459 27.4136 15.41 26.1889V32.2964C15.4098 33.6085 15.0746 34.8988 14.4361 36.045C13.7975 37.1912 12.8769 38.1554 11.7613 38.8461C10.6457 39.5368 9.37223 39.9311 8.06155 39.9918C6.75086 40.0524 5.44642 39.7773 4.27185 39.1925C3.09728 38.6077 2.09152 37.7327 1.34989 36.6503C0.608264 35.5679 0.155352 34.3141 0.0340863 33.0076C-0.0871797 31.7012 0.127219 30.3854 0.656958 29.185C1.1867 27.9846 2.01422 26.9394 3.0611 26.1484C2.10963 25.4307 1.33794 24.5018 0.806907 23.4349C0.275873 22.3679 1.96123e-05 21.1922 0.00111 20.0004C0.00111 17.4883 1.20269 15.2595 3.0611 13.8524C1.77243 12.8791 0.822174 11.5255 0.344601 9.98285C-0.132972 8.44017 -0.113717 6.78643 0.399646 5.25528C0.913009 3.72414 1.89452 2.39302 3.2055 1.45001C4.51648 0.506993 6.09064 -0.000232627 7.70555 8.0036e-08H12.2971ZM15.41 3.11291V12.296H20.0015C21.2193 12.296 22.3872 11.8122 23.2482 10.9511C24.1093 10.0901 24.5931 8.92219 24.5931 7.70444C24.5931 6.48669 24.1093 5.31882 23.2482 4.45774C22.3872 3.59666 21.2193 3.11291 20.0015 3.11291H15.41ZM7.70555 24.592H12.2971V15.4089H7.70555C6.4878 15.4064 5.31894 15.8878 4.45611 16.7471C3.59328 17.6064 3.10715 18.7733 3.10468 19.9911C3.1022 21.2088 3.58357 22.3777 4.4429 23.2405C5.30223 24.1034 6.46912 24.5895 7.68687 24.592H7.70555ZM3.11402 32.2964C3.11402 29.7656 5.15919 27.7142 7.68999 27.7049H12.2971V32.2964C12.2971 33.5141 11.8133 34.682 10.9523 35.5431C10.0912 36.4042 8.9233 36.8879 7.70555 36.8879C6.4878 36.8879 5.31993 36.4042 4.45885 35.5431C3.59777 34.682 3.11402 33.5141 3.11402 32.2964ZM15.41 19.9911C15.4125 18.7741 15.898 17.608 16.7598 16.7488C17.6216 15.8896 18.7892 15.4076 20.0062 15.4089C21.2231 15.4101 22.3898 15.8944 23.2499 16.7554C24.1099 17.6163 24.5931 18.7835 24.5931 20.0004C24.5931 21.2174 24.1099 22.3845 23.2499 23.2455C22.3898 24.1064 21.2231 24.5907 20.0062 24.592C18.7892 24.5932 17.6216 24.1113 16.7598 23.2521C15.898 22.3929 15.4125 21.2267 15.41 20.0098V19.9911Z" fill="white"/>
</svg>
