<svg width="40" height="40" viewBox="0 0 40 40" fill="none" xmlns="http://www.w3.org/2000/svg">
<path d="M36.1093 13.3987L31.7993 17.7087C31.7072 17.8006 31.5824 17.8521 31.4523 17.8521C31.3222 17.8521 31.1974 17.8006 31.1053 17.7087L22.292 8.894C22.2464 8.84854 22.2102 8.79451 22.1854 8.73502C22.1607 8.67553 22.148 8.61175 22.148 8.54733C22.148 8.48292 22.1607 8.41913 22.1854 8.35964C22.2102 8.30016 22.2464 8.24613 22.292 8.20067L26.602 3.89067L22.712 0L0 22.712L3.88867 26.6013L8.06533 22.4267C8.11085 22.381 8.16494 22.3448 8.22448 22.3201C8.28403 22.2954 8.34786 22.2826 8.41233 22.2826C8.4768 22.2826 8.54064 22.2954 8.60019 22.3201C8.65973 22.3448 8.71381 22.381 8.75933 22.4267L17.5733 31.2413C17.6649 31.3335 17.7162 31.4581 17.7162 31.588C17.7162 31.7179 17.6649 31.8425 17.5733 31.9347L13.3987 36.1107L17.288 40L40 17.2893L36.1093 13.3987ZM21.388 3.14733L22.7027 1.83333C22.7439 1.79181 22.7929 1.75885 22.8469 1.73637C22.9009 1.71388 22.9588 1.7023 23.0173 1.7023C23.0758 1.7023 23.1338 1.71388 23.1878 1.73637C23.2418 1.75885 23.2908 1.79181 23.332 1.83333L24.6473 3.14733C24.6888 3.1887 24.7217 3.23785 24.7442 3.29196C24.7666 3.34607 24.7782 3.40408 24.7782 3.46267C24.7782 3.52125 24.7666 3.57926 24.7442 3.63337C24.7217 3.68748 24.6888 3.73663 24.6473 3.778L23.332 5.09267C23.2484 5.17588 23.1353 5.2226 23.0173 5.2226C22.8994 5.2226 22.7863 5.17588 22.7027 5.09267L21.388 3.778C21.3047 3.69419 21.258 3.58083 21.258 3.46267C21.258 3.34451 21.3047 3.23114 21.388 3.14733ZM17.472 7.064L18.7867 5.74933C18.8279 5.70779 18.877 5.67482 18.9311 5.65232C18.9851 5.62982 19.0431 5.61824 19.1017 5.61824C19.1602 5.61824 19.2182 5.62982 19.2723 5.65232C19.3263 5.67482 19.3754 5.70779 19.4167 5.74933L20.73 7.064C20.7716 7.10522 20.8047 7.15428 20.8272 7.20835C20.8498 7.26242 20.8614 7.32042 20.8614 7.379C20.8614 7.43758 20.8498 7.49558 20.8272 7.54965C20.8047 7.60372 20.7716 7.65278 20.73 7.694L19.4167 9.00867C19.3754 9.05021 19.3263 9.08318 19.2723 9.10568C19.2182 9.12818 19.1602 9.13976 19.1017 9.13976C19.0431 9.13976 18.9851 9.12818 18.9311 9.10568C18.877 9.08318 18.8279 9.05021 18.7867 9.00867L17.472 7.694C17.4306 7.65264 17.3978 7.60354 17.3754 7.54949C17.353 7.49544 17.3415 7.43751 17.3415 7.379C17.3415 7.32049 17.353 7.26256 17.3754 7.20851C17.3978 7.15446 17.4306 7.10536 17.472 7.064ZM13.5693 10.9667L14.8833 9.65333C14.9248 9.61183 14.974 9.5789 15.0281 9.55644C15.0823 9.53397 15.1404 9.52241 15.199 9.52241C15.2576 9.52241 15.3157 9.53397 15.3699 9.55644C15.424 9.5789 15.4732 9.61183 15.5147 9.65333L16.828 10.9667C16.8695 11.0081 16.9024 11.0573 16.9249 11.1115C16.9474 11.1656 16.9589 11.2237 16.9589 11.2823C16.9589 11.341 16.9474 11.399 16.9249 11.4532C16.9024 11.5074 16.8695 11.5566 16.828 11.598L15.5147 12.9113C15.4732 12.9528 15.424 12.9858 15.3699 13.0082C15.3157 13.0307 15.2576 13.0423 15.199 13.0423C15.1404 13.0423 15.0823 13.0307 15.0281 13.0082C14.974 12.9858 14.9248 12.9528 14.8833 12.9113L13.5693 11.598C13.5278 11.5566 13.4949 11.5074 13.4724 11.4532C13.45 11.399 13.4384 11.341 13.4384 11.2823C13.4384 11.2237 13.45 11.1656 13.4724 11.1115C13.4949 11.0573 13.5278 11.0081 13.5693 10.9667ZM5.09133 23.3333L3.77733 24.6487C3.69358 24.7323 3.58004 24.7793 3.46167 24.7793C3.34329 24.7793 3.22975 24.7323 3.146 24.6487L1.832 23.3333C1.74854 23.2496 1.70168 23.1362 1.70168 23.018C1.70168 22.8998 1.74854 22.7864 1.832 22.7027L3.146 21.3893C3.18743 21.3478 3.23663 21.3149 3.2908 21.2924C3.34496 21.27 3.40303 21.2584 3.46167 21.2584C3.52031 21.2584 3.57837 21.27 3.63254 21.2924C3.6867 21.3149 3.73591 21.3478 3.77733 21.3893L5.09133 22.7027C5.26467 22.8773 5.26467 23.16 5.09133 23.3333ZM9.008 19.418L7.694 20.7313C7.65257 20.7728 7.60337 20.8058 7.5492 20.8282C7.49504 20.8507 7.43697 20.8623 7.37833 20.8623C7.31969 20.8623 7.26163 20.8507 7.20746 20.8282C7.1533 20.8058 7.10409 20.7728 7.06267 20.7313L5.748 19.418C5.66467 19.3341 5.6179 19.2206 5.6179 19.1023C5.6179 18.9841 5.66467 18.8706 5.748 18.7867L7.06267 17.472C7.14642 17.3883 7.25996 17.3413 7.37833 17.3413C7.49671 17.3413 7.61025 17.3883 7.694 17.472L9.008 18.7867C9.09166 18.8704 9.13865 18.984 9.13865 19.1023C9.13865 19.2207 9.09166 19.3342 9.008 19.418ZM9.65267 14.8827L10.9667 13.5693C11.0081 13.5278 11.0573 13.4949 11.1115 13.4724C11.1656 13.45 11.2237 13.4384 11.2823 13.4384C11.341 13.4384 11.399 13.45 11.4532 13.4724C11.5074 13.4949 11.5566 13.5278 11.598 13.5693L12.912 14.8827C13.0853 15.0573 13.0853 15.3393 12.912 15.514L11.598 16.8273C11.5566 16.8688 11.5074 16.9018 11.4532 16.9242C11.399 16.9467 11.341 16.9583 11.2823 16.9583C11.2237 16.9583 11.1656 16.9467 11.1115 16.9242C11.0573 16.9018 11.0081 16.8688 10.9667 16.8273L9.65267 15.514C9.61116 15.4726 9.57824 15.4234 9.55577 15.3692C9.5333 15.315 9.52174 15.257 9.52174 15.1983C9.52174 15.1397 9.5333 15.0816 9.55577 15.0275C9.57824 14.9733 9.61116 14.9241 9.65267 14.8827ZM10.8393 20.3473C10.7937 20.3018 10.7575 20.2477 10.7327 20.1882C10.708 20.1286 10.6953 20.0648 10.6953 20.0003C10.6953 19.9359 10.708 19.872 10.7327 19.8125C10.7575 19.7529 10.7937 19.6989 10.8393 19.6533L19.6527 10.838C19.7448 10.7461 19.8696 10.6945 19.9997 10.6945C20.1298 10.6945 20.2546 10.7461 20.3467 10.838L29.1613 19.6533C29.2532 19.7454 29.3048 19.8702 29.3048 20.0003C29.3048 20.1304 29.2532 20.2552 29.1613 20.3473L20.3467 29.1613C20.2546 29.2532 20.1298 29.3048 19.9997 29.3048C19.8696 29.3048 19.7448 29.2532 19.6527 29.1613L10.8393 20.3473ZM18.5507 36.7927L17.236 38.1067C17.1946 38.1482 17.1455 38.1811 17.0914 38.2035C17.0373 38.226 16.9793 38.2375 16.9207 38.2375C16.8621 38.2375 16.8041 38.226 16.75 38.2035C16.6959 38.1811 16.6467 38.1482 16.6053 38.1067L15.2913 36.7927C15.2499 36.7513 15.2169 36.7021 15.1945 36.648C15.172 36.5939 15.1605 36.5359 15.1605 36.4773C15.1605 36.4187 15.172 36.3607 15.1945 36.3066C15.2169 36.2525 15.2499 36.2034 15.2913 36.162L16.6053 34.8473C16.6891 34.764 16.8025 34.7173 16.9207 34.7173C17.0388 34.7173 17.1522 34.764 17.236 34.8473L18.5507 36.162C18.724 36.3367 18.724 36.6187 18.5507 36.7927ZM22.4673 32.876L21.152 34.1893C21.1107 34.2309 21.0617 34.2638 21.0076 34.2863C20.9535 34.3088 20.8956 34.3204 20.837 34.3204C20.7784 34.3204 20.7205 34.3088 20.6664 34.2863C20.6123 34.2638 20.5633 34.2309 20.522 34.1893L19.2073 32.876C19.1658 32.8347 19.1328 32.7857 19.1103 32.7316C19.0878 32.6775 19.0762 32.6196 19.0762 32.561C19.0762 32.5024 19.0878 32.4445 19.1103 32.3904C19.1328 32.3363 19.1658 32.2873 19.2073 32.246L20.522 30.9307C20.6057 30.8474 20.719 30.8007 20.837 30.8007C20.9551 30.8007 21.0683 30.8474 21.152 30.9307L22.4673 32.246C22.5506 32.3297 22.5973 32.4429 22.5973 32.561C22.5973 32.6791 22.5506 32.7923 22.4673 32.876ZM26.37 28.9733L25.056 30.2867C25.0147 30.3283 24.9656 30.3614 24.9115 30.3839C24.8574 30.4065 24.7993 30.4181 24.7407 30.4181C24.682 30.4181 24.624 30.4065 24.5699 30.3839C24.5157 30.3614 24.4666 30.3283 24.4253 30.2867L23.1107 28.9733C23.0272 28.8896 22.9803 28.7762 22.9803 28.658C22.9803 28.5398 23.0272 28.4264 23.1107 28.3427L24.4253 27.0287C24.4667 26.9872 24.5159 26.9543 24.57 26.9318C24.6241 26.9094 24.6821 26.8978 24.7407 26.8978C24.7993 26.8978 24.8573 26.9094 24.9114 26.9318C24.9655 26.9543 25.0146 26.9872 25.056 27.0287L26.37 28.3427C26.4535 28.4264 26.5003 28.5398 26.5003 28.658C26.5003 28.7762 26.4535 28.8896 26.37 28.9733ZM30.2853 25.056L28.972 26.3713C28.8882 26.4546 28.7748 26.5014 28.6567 26.5014C28.5385 26.5014 28.4251 26.4546 28.3413 26.3713L27.0273 25.056C26.9859 25.0146 26.9529 24.9655 26.9305 24.9114C26.908 24.8573 26.8965 24.7993 26.8965 24.7407C26.8965 24.6821 26.908 24.6241 26.9305 24.57C26.9529 24.5159 26.9859 24.4667 27.0273 24.4253L28.3413 23.112C28.3826 23.0704 28.4317 23.0373 28.4859 23.0147C28.54 22.9922 28.598 22.9806 28.6567 22.9806C28.7153 22.9806 28.7734 22.9922 28.8275 23.0147C28.8816 23.0373 28.9307 23.0704 28.972 23.112L30.2853 24.4253C30.3688 24.5091 30.4157 24.6225 30.4157 24.7407C30.4157 24.8589 30.3688 24.9723 30.2853 25.056ZM34.1887 21.1533L32.8753 22.4673C32.834 22.5088 32.7848 22.5417 32.7307 22.5642C32.6766 22.5866 32.6186 22.5982 32.56 22.5982C32.5014 22.5982 32.4434 22.5866 32.3893 22.5642C32.3352 22.5417 32.286 22.5088 32.2447 22.4673L30.9293 21.1533C30.8878 21.1119 30.8549 21.0627 30.8324 21.0085C30.81 20.9544 30.7984 20.8963 30.7984 20.8377C30.7984 20.779 30.81 20.721 30.8324 20.6668C30.8549 20.6126 30.8878 20.5634 30.9293 20.522L32.2447 19.2073C32.3285 19.124 32.4418 19.0773 32.56 19.0773C32.6782 19.0773 32.7915 19.124 32.8753 19.2073L34.1887 20.522C34.2303 20.5633 34.2634 20.6125 34.286 20.6667C34.3085 20.7209 34.3202 20.779 34.3202 20.8377C34.3202 20.8964 34.3085 20.9545 34.286 21.0086C34.2634 21.0628 34.2303 21.112 34.1887 21.1533ZM36.7927 18.5507C36.7511 18.5922 36.7018 18.6252 36.6475 18.6477C36.5933 18.6701 36.5351 18.6817 36.4763 18.6817C36.4176 18.6817 36.3594 18.6701 36.3051 18.6477C36.2509 18.6252 36.2015 18.5922 36.16 18.5507L34.8467 17.236C34.8051 17.1948 34.7722 17.1458 34.7497 17.0918C34.7272 17.0378 34.7156 16.9798 34.7156 16.9213C34.7156 16.8628 34.7272 16.8049 34.7497 16.7509C34.7722 16.6969 34.8051 16.6479 34.8467 16.6067L36.16 15.2913C36.2015 15.2498 36.2509 15.2168 36.3051 15.1943C36.3594 15.1719 36.4176 15.1603 36.4763 15.1603C36.5351 15.1603 36.5933 15.1719 36.6475 15.1943C36.7018 15.2168 36.7511 15.2498 36.7927 15.2913L38.1067 16.6067C38.28 16.78 38.28 17.062 38.1067 17.236L36.7927 18.5507Z" fill="white"/>
</svg>
