<svg width="40" height="40" viewBox="0 0 40 40" fill="none" xmlns="http://www.w3.org/2000/svg">
<path d="M23.9724 17.2832C23.0953 17.2832 22.4422 17.7085 22.4422 18.7321C22.4422 19.5033 22.8726 20.0388 23.925 20.0388C24.8171 20.0388 25.4231 19.5196 25.4231 18.7001C25.4231 17.7715 24.8809 17.2832 23.9724 17.2832ZM22.2189 24.5109C22.0113 24.7624 21.8044 25.0298 21.8044 25.3451C21.8044 25.9745 22.6171 26.1639 23.7334 26.1639C24.6579 26.1639 25.9175 26.0999 25.9175 25.2508C25.9175 24.7461 25.3115 24.715 24.5459 24.6677L22.2189 24.5109ZM26.9376 17.3307C27.224 17.6929 27.5274 18.197 27.5274 18.9211C27.5274 20.6687 26.1405 21.692 24.1322 21.692C23.6215 21.692 23.1592 21.6292 22.8726 21.5506L22.3463 22.3847L23.9084 22.4791C26.6666 22.6528 28.2921 22.7317 28.2921 24.8249C28.2921 26.636 26.6825 27.6588 23.9084 27.6588C21.0231 27.6588 19.9231 26.9345 19.9231 25.6908C19.9231 24.9823 20.242 24.6052 20.8 24.0847C20.2738 23.8651 20.0986 23.4717 20.0986 23.0462C20.0986 22.6995 20.2738 22.3849 20.5612 22.0854C20.8479 21.7867 21.1667 21.4873 21.5493 21.1409C20.7683 20.763 20.1782 19.9443 20.1782 18.7789C20.1782 16.9686 21.39 15.7252 23.8285 15.7252C24.5142 15.7252 24.9289 15.7874 25.2955 15.8826H28.4044V17.2204L26.9376 17.3307Z" fill="white"/>
<path d="M31.2089 14.4696C30.3001 14.4696 29.774 13.9496 29.774 13.0518C29.774 12.1553 30.2999 11.6667 31.2089 11.6667C32.1335 11.6667 32.6597 12.1553 32.6597 13.0518C32.6597 13.9496 32.1336 14.4696 31.2089 14.4696ZM29.1521 23.9315V22.6882L29.9654 22.5784C30.1887 22.5466 30.2203 22.4996 30.2203 22.263V17.6339C30.2203 17.4612 30.1727 17.3504 30.0127 17.3037L29.1521 17.0042L29.3273 15.7293H32.6275V22.263C32.6275 22.5152 32.6429 22.5466 32.8828 22.5785L33.6957 22.6884V23.9315H29.1521Z" fill="white"/>
<path d="M40 23.321C39.3143 23.6514 38.31 23.9506 37.401 23.9506C35.504 23.9506 34.7869 23.1956 34.7869 21.4155V17.2909C34.7869 17.1965 34.7869 17.1335 34.6589 17.1335H33.5432V15.7318C34.9465 15.574 35.504 14.8812 35.6793 13.165H37.194V15.4014C37.194 15.5113 37.194 15.5588 37.3217 15.5588H39.5692V17.1332H37.194V20.896C37.194 21.8249 37.4174 22.1867 38.2779 22.1867C38.7248 22.1867 39.1866 22.0768 39.5691 21.9351L40 23.3208" fill="white"/>
<path d="M16.3795 19.1892L9.09047 11.9906C8.99065 11.892 8.87213 11.8138 8.74169 11.7604C8.61125 11.707 8.47144 11.6796 8.33025 11.6796C8.18905 11.6796 8.04924 11.707 7.9188 11.7604C7.78836 11.8138 7.66984 11.892 7.57002 11.9906L6.05646 13.4857L7.9765 15.3818C8.20219 15.306 8.44486 15.2942 8.67703 15.3476C8.9092 15.401 9.12157 15.5176 9.2901 15.6841C9.45954 15.8517 9.57784 16.0629 9.63148 16.2937C9.68513 16.5245 9.67196 16.7656 9.59348 16.9894L11.4436 18.817C11.8913 18.6647 12.4079 18.7633 12.7654 19.1169C12.8842 19.2342 12.9785 19.3735 13.0428 19.5268C13.1071 19.6801 13.1402 19.8444 13.1402 20.0103C13.1402 20.1762 13.1071 20.3405 13.0428 20.4938C12.9785 20.6471 12.8842 20.7864 12.7654 20.9037C12.5563 21.1104 12.2812 21.2391 11.9868 21.268C11.6924 21.2969 11.397 21.2241 11.1509 21.0621C10.9047 20.9 10.723 20.6588 10.6367 20.3793C10.5504 20.0999 10.5648 19.7995 10.6775 19.5294L8.95195 17.8251L8.95179 22.3102C9.07689 22.3713 9.19114 22.452 9.2901 22.5491C9.40893 22.6665 9.50319 22.8058 9.5675 22.9591C9.63181 23.1124 9.66491 23.2767 9.66491 23.4427C9.66491 23.6086 9.63181 23.773 9.5675 23.9263C9.50319 24.0796 9.40893 24.2189 9.2901 24.3362C8.79023 24.8299 7.9801 24.8299 7.48101 24.3362C7.33191 24.1891 7.22193 24.0078 7.16086 23.8085C7.09979 23.6093 7.08951 23.3982 7.13095 23.1941C7.17238 22.99 7.26424 22.7991 7.39836 22.6385C7.53248 22.4779 7.7047 22.3525 7.89971 22.2735V17.7466C7.74284 17.6834 7.60045 17.5896 7.48101 17.4709C7.10243 17.0974 7.01139 16.5488 7.20538 16.0896L5.31277 14.22L0.315005 19.1558C0.215136 19.2544 0.135916 19.3715 0.0818673 19.5004C0.0278186 19.6292 0 19.7674 0 19.9069C0 20.0463 0.0278186 20.1845 0.0818673 20.3133C0.135916 20.4422 0.215136 20.5593 0.315005 20.6579L7.60402 27.8566C7.80567 28.0557 8.07912 28.1676 8.36425 28.1676C8.64938 28.1676 8.92283 28.0557 9.12447 27.8566L16.3795 20.6915C16.5811 20.4922 16.6944 20.2221 16.6944 19.9404C16.6944 19.6586 16.5811 19.3885 16.3795 19.1892Z" fill="white"/>
</svg>
