<svg width="23" height="23" viewBox="0 0 23 23" fill="none" xmlns="http://www.w3.org/2000/svg">
<path d="M7.69294 18.5196C7.69294 18.6147 7.58629 18.6908 7.45181 18.6908C7.29879 18.705 7.19214 18.629 7.19214 18.5196C7.19214 18.4244 7.29879 18.3484 7.43327 18.3484C7.57238 18.3341 7.69294 18.4102 7.69294 18.5196ZM6.25081 18.3055C6.21835 18.4007 6.31109 18.5101 6.4502 18.5386C6.57077 18.5861 6.70988 18.5386 6.7377 18.4435C6.76552 18.3484 6.67742 18.239 6.53831 18.1962C6.41774 18.1629 6.28327 18.2104 6.25081 18.3055ZM8.3004 18.2247C8.16593 18.258 8.07318 18.3484 8.0871 18.4577C8.10101 18.5529 8.22157 18.6147 8.36069 18.5814C8.49516 18.5481 8.5879 18.4577 8.57399 18.3626C8.56008 18.2723 8.43488 18.2104 8.3004 18.2247ZM11.3516 0C4.91996 0 0 5.00799 0 11.6045C0 16.8788 3.23669 21.3921 7.85988 22.9806C8.45343 23.09 8.6621 22.7143 8.6621 22.4052C8.6621 22.1103 8.64819 20.4838 8.64819 19.485C8.64819 19.485 5.40222 20.1984 4.72056 18.0678C4.72056 18.0678 4.19194 16.6838 3.43145 16.3271C3.43145 16.3271 2.36956 15.5804 3.50565 15.5947C3.50565 15.5947 4.66028 15.6898 5.29556 16.8217C6.31109 18.6575 8.0129 18.1296 8.67601 17.8157C8.78266 17.0547 9.08407 16.5268 9.41794 16.2129C6.82581 15.9181 4.21048 15.5328 4.21048 10.9576C4.21048 9.64977 4.5629 8.99345 5.30484 8.15641C5.18427 7.84727 4.79012 6.57269 5.4254 4.92714C6.39456 4.618 8.625 6.21124 8.625 6.21124C9.55242 5.9449 10.5494 5.80698 11.5371 5.80698C12.5248 5.80698 13.5218 5.9449 14.4492 6.21124C14.4492 6.21124 16.6796 4.61325 17.6488 4.92714C18.2841 6.57744 17.8899 7.84727 17.7694 8.15641C18.5113 8.99821 18.9657 9.65452 18.9657 10.9576C18.9657 15.5471 16.2345 15.9133 13.6423 16.2129C14.069 16.5887 14.4306 17.302 14.4306 18.4197C14.4306 20.0224 14.4167 22.0057 14.4167 22.3956C14.4167 22.7048 14.63 23.0805 15.219 22.9711C19.856 21.3921 23 16.8788 23 11.6045C23 5.00799 17.7833 0 11.3516 0ZM4.50726 16.4032C4.44698 16.4507 4.46089 16.5601 4.53972 16.6505C4.61391 16.7266 4.72056 16.7599 4.78085 16.698C4.84113 16.6505 4.82722 16.5411 4.74839 16.4507C4.67419 16.3746 4.56754 16.3414 4.50726 16.4032ZM4.00645 16.018C3.97399 16.0798 4.02036 16.1559 4.1131 16.2034C4.1873 16.251 4.28004 16.2367 4.3125 16.1701C4.34496 16.1083 4.29859 16.0322 4.20585 15.9847C4.1131 15.9561 4.03891 15.9704 4.00645 16.018ZM5.50887 17.7111C5.43468 17.7729 5.4625 17.9156 5.56915 18.0059C5.67581 18.1153 5.81028 18.1296 5.87056 18.0535C5.93085 17.9917 5.90302 17.849 5.81028 17.7586C5.70827 17.6492 5.56915 17.635 5.50887 17.7111ZM4.98024 17.0119C4.90605 17.0595 4.90605 17.1832 4.98024 17.2925C5.05444 17.4019 5.17964 17.4495 5.23992 17.4019C5.31411 17.3401 5.31411 17.2164 5.23992 17.1071C5.175 16.9977 5.05444 16.9501 4.98024 17.0119Z" fill="white"/>
</svg>
