<svg width="40" height="40" viewBox="0 0 40 40" fill="none" xmlns="http://www.w3.org/2000/svg">
<path d="M28.2377 24.445C29.1735 23.9216 30.4721 23.4684 30.4721 23.4684C30.4721 23.4684 26.7768 24.0153 23.1007 24.2653C18.6033 24.57 13.7718 24.6325 11.3465 24.3669C5.60783 23.7419 14.4975 22.0153 14.4975 22.0153C14.4975 22.0153 11.0505 21.8278 6.80139 23.4997C1.78844 25.484 19.2144 26.3903 28.2377 24.445ZM20.0833 21.9372C18.2691 18.6013 12.1485 15.6717 20.0833 10.5467C29.9813 4.15619 24.9053 0 24.9053 0C26.9582 6.60147 17.6867 8.60145 14.3351 12.703C12.0531 15.5076 15.4523 18.5154 20.0833 21.9372ZM31.0259 8.17177C31.0354 8.17177 14.297 11.5936 22.289 19.1247C24.6475 21.3435 21.6684 23.3434 21.6684 23.3434C21.6684 23.3434 27.6553 20.8122 24.9053 17.6482C22.3368 14.6951 20.3698 13.2264 31.0259 8.17177ZM30.4434 29.3043C30.3913 29.3787 30.327 29.4471 30.2525 29.5074C42.5032 26.8746 37.9963 20.2185 32.1431 21.906C31.8269 22.001 31.5538 22.1727 31.3601 22.3981C31.7019 22.2969 32.0532 22.2185 32.4104 22.1638C35.3705 21.656 39.6195 25.4059 30.4434 29.3043ZM34.9465 34.1714C34.9465 34.1714 36.331 35.1011 33.4283 35.8277C27.8997 37.1948 10.4355 37.6089 5.58492 35.8823C3.83754 35.2652 7.11267 34.398 8.14391 34.2183C9.21334 34.0308 9.83399 34.062 9.83399 34.062C7.89565 32.9449 -2.70317 36.2573 4.44865 37.2026C23.9505 39.7963 40.0072 36.0386 34.9465 34.1714ZM13.5999 30.9371C6.08526 32.6558 18.1736 36.2026 27.7412 32.8511C26.8081 32.5545 25.9073 32.1939 25.0485 31.773C20.7804 32.4371 18.8038 32.4839 14.9272 32.1246C11.7284 31.8277 13.5999 30.9371 13.5999 30.9371ZM30.7681 38.5307C23.2534 39.687 13.9819 39.5542 8.49148 38.812C8.49148 38.8042 9.6182 39.5698 15.4046 39.8745C24.2083 40.3354 37.7289 39.6167 38.044 36.2105C38.044 36.2105 37.4329 37.4995 30.7681 38.5307ZM26.605 27.5778C20.9522 28.4684 17.6771 28.4449 13.5426 28.0934C10.3439 27.8199 12.435 26.5543 12.435 26.5543C4.14691 28.8043 17.0374 31.3511 28.6197 28.5777C27.8711 28.3615 27.1852 28.021 26.605 27.5778Z" fill="white"/>
</svg>
