<svg width="36" height="40" viewBox="0 0 36 40" fill="none" xmlns="http://www.w3.org/2000/svg">
<path d="M20 1.03225e-05C22.9645 -0.00300437 25.8924 0.654355 28.5711 1.92433C31.2498 3.19431 33.6119 5.04502 35.486 7.34201L22.828 20L35.486 32.658C33.6119 34.955 31.2498 36.8057 28.5711 38.0757C25.8924 39.3456 22.9645 40.003 20 40C8.954 40 0 31.046 0 20C0 8.95401 8.954 1.03225e-05 20 1.03225e-05ZM20 4.00001C17.4758 4.00046 14.9876 4.59809 12.7386 5.74409C10.4896 6.89009 8.54366 8.55192 7.05975 10.5938C5.57584 12.6357 4.59607 14.9997 4.20052 17.4927C3.80497 19.9856 4.00484 22.5368 4.78382 24.9377C5.56279 27.3387 6.89876 29.5213 8.68256 31.3071C10.4664 33.093 12.6474 34.4315 15.0474 35.2133C17.4475 35.995 19.9984 36.1979 22.4918 35.8052C24.9852 35.4126 27.3504 34.4355 29.394 32.954L29.81 32.64L17.17 20L29.81 7.35801L29.394 7.04601C26.8316 5.18325 23.7719 4.12691 20.606 4.01201L20 4.00001ZM20 6.00001C20.7956 6.00001 21.5587 6.31608 22.1213 6.87869C22.6839 7.4413 23 8.20436 23 9.00001C23 9.79566 22.6839 10.5587 22.1213 11.1213C21.5587 11.6839 20.7956 12 20 12C19.2043 12 18.4413 11.6839 17.8787 11.1213C17.3161 10.5587 17 9.79566 17 9.00001C17 8.20436 17.3161 7.4413 17.8787 6.87869C18.4413 6.31608 19.2043 6.00001 20 6.00001Z" fill="white"/>
</svg>
