<svg width="60" height="40" viewBox="0 0 60 40" fill="none" xmlns="http://www.w3.org/2000/svg">
<path d="M57.0857 2.07803e-06H41.9686C38.7245 2.07803e-06 35.553 0.802735 32.8243 2.31711L29.6 4.09906L26.3757 2.31711C23.6497 0.803025 20.4747 -0.00149229 17.2314 2.07803e-06H2.11429C0.944821 2.07803e-06 0 0.814121 0 1.82181V34.1588C0 35.1665 0.944821 35.9806 2.11429 35.9806H17.2314C20.4755 35.9806 23.647 36.7834 26.3757 38.2978L29.3093 39.926C29.3952 39.9715 29.4943 40 29.5934 40C29.6925 40 29.7916 39.9772 29.8775 39.926L32.8111 38.2978C35.5464 36.7834 38.7245 35.9806 41.9686 35.9806H57.0857C58.2552 35.9806 59.2 35.1665 59.2 34.1588V1.82181C59.2 0.814121 58.2552 2.07803e-06 57.0857 2.07803e-06ZM17.2314 31.8816H4.75714V4.09906H17.2314C19.5704 4.09906 21.8432 4.67407 23.8055 5.76146L27.0298 7.54341L27.4857 7.7996V34.1019C24.3407 32.6445 20.8257 31.8816 17.2314 31.8816ZM54.4429 31.8816H41.9686C38.3743 31.8816 34.8593 32.6445 31.7143 34.1019V7.7996L32.1702 7.54341L35.3945 5.76146C37.3568 4.67407 39.6296 4.09906 41.9686 4.09906H54.4429V31.8816ZM21.9952 11.3863H9.71911C9.46143 11.3863 9.25 11.5798 9.25 11.8133V14.3752C9.25 14.6086 9.46143 14.8022 9.71911 14.8022H21.9886C22.2463 14.8022 22.4577 14.6086 22.4577 14.3752V11.8133C22.4643 11.5798 22.2529 11.3863 21.9952 11.3863ZM36.7357 11.8133V14.3752C36.7357 14.6086 36.9471 14.8022 37.2048 14.8022H49.4743C49.732 14.8022 49.9434 14.6086 49.9434 14.3752V11.8133C49.9434 11.5798 49.732 11.3863 49.4743 11.3863H37.2048C36.9471 11.3863 36.7357 11.5798 36.7357 11.8133ZM21.9952 19.3567H9.71911C9.46143 19.3567 9.25 19.5502 9.25 19.7837V22.3456C9.25 22.579 9.46143 22.7726 9.71911 22.7726H21.9886C22.2463 22.7726 22.4577 22.579 22.4577 22.3456V19.7837C22.4643 19.5502 22.2529 19.3567 21.9952 19.3567ZM49.4809 19.3567H37.2048C36.9471 19.3567 36.7357 19.5502 36.7357 19.7837V22.3456C36.7357 22.579 36.9471 22.7726 37.2048 22.7726H49.4743C49.732 22.7726 49.9434 22.579 49.9434 22.3456V19.7837C49.95 19.5502 49.7386 19.3567 49.4809 19.3567Z" fill="white"/>
</svg>
