<svg width="23" height="23" viewBox="0 0 23 23" fill="none" xmlns="http://www.w3.org/2000/svg">
<path d="M7.18696 19.2949H4.18226V9.61875H7.18696V19.2949ZM5.68299 8.29883C4.72219 8.29883 3.94287 7.50299 3.94287 6.54216C3.94287 6.08064 4.12621 5.63803 4.45254 5.31168C4.77888 4.98534 5.22149 4.802 5.68299 4.802C6.1445 4.802 6.58711 4.98534 6.91345 5.31168C7.23978 5.63803 7.42312 6.08064 7.42312 6.54216C7.42312 7.50299 6.64348 8.29883 5.68299 8.29883ZM18.4326 19.2949H15.4344V14.5846C15.4344 13.4621 15.4117 12.0224 13.8722 12.0224C12.31 12.0224 12.0706 13.2421 12.0706 14.5038V19.2949H9.0691V9.61875H11.9509V10.9387H11.9929C12.3941 10.1784 13.374 9.37612 14.8359 9.37612C17.8768 9.37612 18.4358 11.3786 18.4358 13.9797V19.2949H18.4326Z" fill="white"/>
<mask id="path-2-inside-1" fill="white">
<rect width="23" height="23" rx="0.839196"/>
</mask>
<rect width="23" height="23" rx="0.839196" stroke="white" stroke-width="3.35678" mask="url(#path-2-inside-1)"/>
</svg>
