<svg width="37" height="40" viewBox="0 0 37 40" fill="none" xmlns="http://www.w3.org/2000/svg">
<path d="M7.77729 32.2227C12.0665 32.2227 15.5546 28.7346 15.5546 24.4454V4.72029L33.0535 11.0821V25.5284C31.8769 24.8274 30.5344 24.4535 29.1648 24.4454C24.8757 24.4454 21.3875 27.9335 21.3875 32.2227C21.3875 36.5119 24.8757 40 29.1648 40C33.454 40 36.9421 36.5119 36.9421 32.2227V9.72108C36.9424 9.32216 36.8197 8.93285 36.5908 8.60616C36.3619 8.27947 36.0378 8.03127 35.6627 7.89536L14.2752 0.118078C13.9816 0.0107454 13.6664 -0.024136 13.3565 0.0163968C13.0465 0.0569296 12.7509 0.171679 12.4947 0.350897C12.2386 0.530116 12.0295 0.768508 11.8852 1.04582C11.7409 1.32314 11.6657 1.63119 11.6659 1.9438V17.7511C10.4894 17.0501 9.14684 16.6762 7.77729 16.6681C3.48811 16.6681 0 20.1563 0 24.4454C0 28.7346 3.48811 32.2227 7.77729 32.2227Z" fill="white"/>
</svg>
