<svg width="42" height="40" viewBox="0 0 42 40" fill="none" xmlns="http://www.w3.org/2000/svg">
<path d="M0 0V40H41.0283V0H0ZM1.70908 1.70908H39.3179V38.2896H1.70908V1.70908ZM9.91602 9.36855C9.91602 9.25444 10.1571 9.16854 10.2968 9.16854C11.7653 9.10642 13.235 9.07735 14.7048 9.08135C19.4461 9.08135 21.2885 11.679 21.2885 15.0048C21.2885 19.3525 18.1371 21.2155 14.2766 21.2155C13.6227 21.2155 13.4021 21.1821 12.9483 21.1821V27.7531C12.9483 27.8928 12.8944 27.9531 12.7547 27.9531H10.1096C9.96987 27.9531 9.91602 27.8992 9.91602 27.7595V9.36855ZM12.9483 18.4512C13.3419 18.4781 13.656 18.4781 14.3368 18.4781C16.3331 18.4781 18.2166 17.7704 18.2166 15.0663C18.2166 12.8957 16.8677 11.7943 14.5843 11.7943C13.9099 11.7943 13.2624 11.8213 12.9483 11.8482V18.4512ZM27.6659 16.4139C26.3107 16.4139 25.8568 17.0947 25.8568 17.6563C25.8568 18.2768 26.1645 18.6986 27.9736 19.6333C30.652 20.936 31.4995 22.1707 31.4995 24.0067C31.4995 26.7376 29.4096 28.2069 26.5914 28.2069C25.0952 28.2069 23.8208 27.8928 23.0861 27.4723C22.9797 27.4184 22.9528 27.3325 22.9528 27.1915V24.6811C22.9528 24.5144 23.0335 24.4541 23.1464 24.5413C24.1696 25.2066 25.3645 25.5595 26.585 25.5568C27.9403 25.5568 28.5018 24.9952 28.5018 24.2285C28.5018 23.6079 28.1082 23.0733 26.3914 22.1719C23.9605 21.0103 22.9451 19.8282 22.9451 17.8511C22.9451 15.6472 24.6682 13.8176 27.6531 13.8176C29.1224 13.8176 30.1571 14.0445 30.725 14.2919C30.8648 14.3791 30.8917 14.5189 30.8917 14.633V16.9767C30.8917 17.1165 30.8045 17.2037 30.6379 17.1434C29.8763 16.6959 28.7544 16.4087 27.6595 16.4087L27.6659 16.4139Z" fill="white"/>
</svg>
