<svg width="38" height="40" viewBox="0 0 38 40" fill="none" xmlns="http://www.w3.org/2000/svg">
<path d="M8.33974 16.8013L0.0937488 28.9801C-0.146873 29.3707 0.101561 29.8785 0.557024 29.9285L16.8271 31.6527L8.33974 16.8013ZM0.578899 24.6426L6.46085 15.0842L0.473431 11.492C0.26484 11.367 0 11.517 0 11.76V24.4794C0 24.7942 0.413276 24.9114 0.578899 24.6426ZM1.42576 33.0933L16.6131 39.9417C17.0271 40.1331 17.4998 39.83 17.4998 39.3745V34.2441L1.59764 32.5019C1.24998 32.4629 1.11092 32.9386 1.42576 33.0933ZM7.77099 12.9545L14.0154 1.78748C14.3545 1.23592 13.735 0.596086 13.1733 0.917176L1.39139 8.62098C1.19842 8.74754 1.20467 9.03191 1.40154 9.15066L7.77099 12.9545ZM18.7498 13.7498H27.2817L19.8146 0.595305C19.5701 0.198435 19.1599 0 18.7498 0C18.3396 0 17.9295 0.198435 17.6849 0.595305L10.2178 13.7498H18.7498ZM37.0261 11.492L31.0387 15.085L36.9206 24.6434C37.0855 24.9122 37.4995 24.795 37.4995 24.4794V11.76C37.4995 11.517 37.2347 11.367 37.0261 11.492ZM29.7285 12.9545L36.098 9.14988C36.2956 9.03113 36.3011 8.74676 36.1081 8.6202L24.3262 0.917176C23.7645 0.596086 23.145 1.23592 23.4841 1.78748L29.7285 12.9545ZM35.9019 32.5019L19.9997 34.2433V39.3737C19.9997 39.83 20.4724 40.1323 20.8864 39.9409L36.0737 33.0925C36.3886 32.9386 36.2495 32.4629 35.9019 32.5019ZM29.1598 16.8013L20.6732 31.6527L36.9433 29.9285C37.3987 29.8777 37.6472 29.3707 37.4065 28.9801L29.1598 16.8013ZM18.7498 16.2498H10.9038L18.7498 29.9801L26.5957 16.2498H18.7498Z" fill="white"/>
</svg>
